<svg id="Layer_1" data-name="Layer 1" xmlns="http://www.w3.org/2000/svg" viewBox="0 0 418.76 173.74"><defs><style>.cls-1{fill:#53bce6;}</style></defs><title>plesk</title><path d="M103.28,383.49H90.63v-133A105.31,105.31,0,0,1,122,245.49,56.9,56.9,0,0,1,142.31,249,46,46,0,0,1,158,258.68a42.22,42.22,0,0,1,10,14.85,49.41,49.41,0,0,1,3.48,18.69q0,12.28-4.21,21.08a42.23,42.23,0,0,1-11.09,14.48,44.31,44.31,0,0,1-15.67,8.33,61.52,61.52,0,0,1-18,2.66,64.8,64.8,0,0,1-9.71-.73,87,87,0,0,1-9.53-2ZM157,292q0-15.94-8.89-25.75t-25-9.8a77.94,77.94,0,0,0-10.08.64,48.78,48.78,0,0,0-9.71,2.29v64.87a84.47,84.47,0,0,0,9.07,2.48,43.08,43.08,0,0,0,9.07,1q16.3,0,25.93-9.26T157,292Z" transform="translate(-90.63 -209.75)"/><path d="M197.11,338V209.75h12.83V338Z" transform="translate(-90.63 -209.75)"/><path d="M314.76,324.66a42.53,42.53,0,0,1-14.84,10.54q-8.43,3.57-20.34,3.57A46,46,0,0,1,260.33,335a39.12,39.12,0,0,1-13.74-10.17,43.16,43.16,0,0,1-8.25-14.66,54.73,54.73,0,0,1-2.75-17.41,60.28,60.28,0,0,1,3.3-21,41.79,41.79,0,0,1,9-14.76,35.94,35.94,0,0,1,13.2-8.7A44.73,44.73,0,0,1,277,245.49q20.16,0,30.42,12.37t9.9,36H248.6q.56,15.58,9,24.74t22.91,9.17a38.89,38.89,0,0,0,14.66-2.66,32.29,32.29,0,0,0,11.91-8.52Zm-10.26-41.6a31.82,31.82,0,0,0-1.74-10.63,24.14,24.14,0,0,0-4.95-8.43,23,23,0,0,0-8.34-5.59,34.92,34.92,0,0,0-23.91,0,21.63,21.63,0,0,0-8,5.4,37.32,37.32,0,0,0-5.4,8.34A34.05,34.05,0,0,0,249,283.06Z" transform="translate(-90.63 -209.75)"/><path d="M401.29,268a32.18,32.18,0,0,0-10.37-8.89,28.9,28.9,0,0,0-13.25-2.84c-6.53,0-11.1,1.17-13.72,3.48a11.25,11.25,0,0,0-3.94,8.8,10.36,10.36,0,0,0,1.83,6.23,16.15,16.15,0,0,0,4.79,4.4,35.85,35.85,0,0,0,6.92,3.21q3.93,1.36,8.16,2.66c3.45,1.09,6.91,2.29,10.36,3.57a39.83,39.83,0,0,1,9.51,5,25.49,25.49,0,0,1,7,7.6,21.69,21.69,0,0,1,2.69,11.27,23,23,0,0,1-2.69,11.18,25.12,25.12,0,0,1-7.29,8.34,33,33,0,0,1-10.85,5.13,53.23,53.23,0,0,1-32.73-1.83,45.89,45.89,0,0,1-15.94-11.82l10-8.8q10,12.84,25.92,12.84,10.36,0,15.36-3.86t5-9.34a12.89,12.89,0,0,0-1.82-7.06,16.15,16.15,0,0,0-5-4.86,32.51,32.51,0,0,0-7.29-3.38c-2.76-.92-5.66-1.81-8.73-2.66q-5.19-1.47-10.27-3.3a37.67,37.67,0,0,1-9.12-4.68,23,23,0,0,1-6.63-7.23,21.77,21.77,0,0,1-2.59-11.18q0-12.1,8.83-18.7t22.85-6.59A45.14,45.14,0,0,1,396,248.05q7.77,3.3,14.87,11.55l-9.4,8.61Z" transform="translate(-90.63 -209.75)"/><path d="M435.35,338V209.93h12.83V338Zm12.83-47.28,44-44.36h17.23l-45.08,44L509.21,338H491.43Z" transform="translate(-90.63 -209.75)"/><path class="cls-1" d="M241.74,383.49H164.55V371.42h77.19Z" transform="translate(-90.63 -209.75)"/></svg>