<?xml version="1.0" encoding="utf-8"?>
<!-- Generator: Adobe Illustrator 23.0.1, SVG Export Plug-In . SVG Version: 6.00 Build 0)  -->
<svg version="1.1" id="Layer_1" xmlns="http://www.w3.org/2000/svg" xmlns:xlink="http://www.w3.org/1999/xlink" x="0px" y="0px"
	 viewBox="0 0 2500 2480" style="enable-background:new 0 0 2500 2480;" xml:space="preserve">
<style type="text/css">
	.st0{fill:#9B5C8F;}
	.st1{fill:#FFFFFF;}
</style>
<path class="st0" d="M232.1,493h2034.7c128.8,0,233,104.2,233,233v776.7c0,128.8-104.2,233-233,233h-729.7l100.2,245.3l-440.5-245.3
	H233.1c-128.8,0-233-104.2-233-233V726C-0.9,598.3,103.3,493,232.1,493z"/>
<path class="st1" d="M142.5,705.4c14.2-19.3,35.6-29.5,64-31.5c51.8-4.1,81.3,20.3,88.4,73.2c31.5,212.4,66,392.2,102.6,539.6
	l222.5-423.7c20.3-38.6,45.7-58.9,76.2-61c44.7-3,72.1,25.4,83.3,85.4c25.4,135.1,57.9,250,96.5,347.5
	c26.4-258.1,71.1-444.1,134.1-558.9c15.2-28.5,37.6-42.7,67.1-44.7c23.4-2,44.7,5.1,64,20.3c19.3,15.2,29.5,34.5,31.5,57.9
	c1,18.3-2,33.5-10.2,48.8c-39.6,73.2-72.2,196.1-98.6,366.8c-25.4,165.6-34.5,294.7-28.5,387.2c2,25.4-2,47.7-12.2,67.1
	c-12.2,22.4-30.5,34.5-53.9,36.6c-26.4,2-53.9-10.2-80.3-37.6c-94.5-96.5-169.7-240.8-224.6-432.9
	C598.7,1275.5,549.9,1373,518.4,1438c-60,114.8-110.8,173.8-153.4,176.8c-27.4,2-50.8-21.3-71.1-70.1
	c-51.8-133.1-107.7-390.2-167.7-771.3C122.1,747.1,128.2,723.7,142.5,705.4L142.5,705.4z M2326.2,864.9
	c-36.6-64-90.4-102.6-162.6-117.9c-19.3-4.1-37.6-6.1-54.9-6.1c-97.5,0-176.8,50.8-238.8,152.4c-52.8,86.4-79.3,181.9-79.3,286.6
	c0,78.2,16.3,145.3,48.8,201.2c36.6,64,90.4,102.6,162.6,117.9c19.3,4.1,37.6,6.1,54.9,6.1c98.6,0,177.8-50.8,238.8-152.4
	c52.8-87.4,79.3-182.9,79.3-287.6C2376,985.9,2358.7,919.8,2326.2,864.9L2326.2,864.9z M2198.2,1146.4
	c-14.2,67.1-39.6,116.9-77.2,150.4c-29.5,26.4-56.9,37.6-82.3,32.5c-24.4-5.1-44.7-26.4-60-66c-12.2-31.5-18.3-63-18.3-92.5
	c0-25.4,2-50.8,7.1-74.2c9.1-41.7,26.4-82.3,53.9-120.9c33.5-49.8,69.1-70.1,105.7-63c24.4,5.1,44.7,26.4,60,66
	c12.2,31.5,18.3,63,18.3,92.5C2205.3,1097.6,2203.3,1123,2198.2,1146.4L2198.2,1146.4z M1690.1,864.9
	c-36.6-64-91.5-102.6-162.6-117.9c-19.3-4.1-37.6-6.1-54.9-6.1c-97.5,0-176.8,50.8-238.8,152.4c-52.8,86.4-79.3,181.9-79.3,286.6
	c0,78.2,16.3,145.3,48.8,201.2c36.6,64,90.4,102.6,162.6,117.9c19.3,4.1,37.6,6.1,54.9,6.1c98.6,0,177.8-50.8,238.8-152.4
	c52.8-87.4,79.3-182.9,79.3-287.6C1738.9,985.9,1722.6,919.8,1690.1,864.9L1690.1,864.9z M1561,1146.4
	c-14.2,67.1-39.6,116.9-77.2,150.4c-29.5,26.4-56.9,37.6-82.3,32.5c-24.4-5.1-44.7-26.4-60-66c-12.2-31.5-18.3-63-18.3-92.5
	c0-25.4,2-50.8,7.1-74.2c9.1-41.7,26.4-82.3,53.9-120.9c33.5-49.8,69.1-70.1,105.7-63c24.4,5.1,44.7,26.4,60,66
	c12.2,31.5,18.3,63,18.3,92.5C1569.2,1097.6,1566.1,1123,1561,1146.4L1561,1146.4z"/>
</svg>
